<mxfile host="app.diagrams.net" modified="2023-02-22T08:40:56.187Z" agent="5.0 (Windows NT 10.0; Win64; x64) AppleWebKit/537.36 (KHTML, like Gecko) Chrome/110.0.0.0 Safari/537.36" etag="et5wB0XaCirjCmOoneOr" version="19.0.3" type="github">
  <diagram name="Page-1" id="10a91c8b-09ff-31b1-d368-03940ed4cc9e">
    <mxGraphModel dx="1209" dy="666" grid="0" gridSize="10" guides="1" tooltips="1" connect="1" arrows="1" fold="1" page="1" pageScale="1" pageWidth="1100" pageHeight="850" background="none" math="0" shadow="0">
      <root>
        <mxCell id="0" />
        <mxCell id="1" parent="0" />
        <mxCell id="62893188c0fa7362-1" value="&lt;font data-font-src=&quot;https://fonts.googleapis.com/css?family=%E5%8D%8E%E6%96%87%E5%AE%8B%E4%BD%93&quot; face=&quot;华文宋体&quot;&gt;月收入&lt;/font&gt;" style="whiteSpace=wrap;html=1;rounded=1;shadow=1;labelBackgroundColor=none;strokeWidth=1;fontFamily=Verdana;fontSize=12;align=center;" parent="1" vertex="1">
          <mxGeometry x="563" y="46" width="120" height="60" as="geometry" />
        </mxCell>
        <mxCell id="62893188c0fa7362-2" value="&lt;span&gt;&lt;font data-font-src=&quot;https://fonts.googleapis.com/css?family=%E5%8D%8E%E6%96%87%E5%AE%8B%E4%BD%93&quot; face=&quot;华文宋体&quot;&gt;时间合规&lt;/font&gt;&lt;/span&gt;" style="whiteSpace=wrap;html=1;rounded=1;shadow=1;labelBackgroundColor=none;strokeWidth=1;fontFamily=Verdana;fontSize=12;align=center;" parent="1" vertex="1">
          <mxGeometry x="430" y="170" width="120" height="60" as="geometry" />
        </mxCell>
        <mxCell id="62893188c0fa7362-3" value="&lt;span&gt;&lt;font data-font-src=&quot;https://fonts.googleapis.com/css?family=%E5%8D%8E%E6%96%87%E5%AE%8B%E4%BD%93&quot; face=&quot;华文宋体&quot;&gt;不贷款&lt;/font&gt;&lt;/span&gt;" style="whiteSpace=wrap;html=1;rounded=1;shadow=1;labelBackgroundColor=none;strokeWidth=1;fontFamily=Verdana;fontSize=12;align=center;" parent="1" vertex="1">
          <mxGeometry x="726" y="167" width="120" height="60" as="geometry" />
        </mxCell>
        <mxCell id="62893188c0fa7362-4" value="No" style="rounded=0;html=1;labelBackgroundColor=none;startArrow=none;startFill=0;startSize=5;endArrow=none;endFill=0;endSize=5;jettySize=auto;orthogonalLoop=1;strokeWidth=1;fontFamily=Verdana;fontSize=12" parent="1" source="62893188c0fa7362-1" target="62893188c0fa7362-3" edge="1">
          <mxGeometry x="1" y="-427" relative="1" as="geometry">
            <mxPoint x="421" y="41" as="offset" />
          </mxGeometry>
        </mxCell>
        <mxCell id="62893188c0fa7362-5" value="Yes" style="rounded=0;html=1;labelBackgroundColor=none;startArrow=none;startFill=0;startSize=5;endArrow=none;endFill=0;endSize=5;jettySize=auto;orthogonalLoop=1;strokeWidth=1;fontFamily=Verdana;fontSize=12" parent="1" source="62893188c0fa7362-1" target="62893188c0fa7362-2" edge="1">
          <mxGeometry x="-0.0462" y="550" relative="1" as="geometry">
            <mxPoint as="offset" />
          </mxGeometry>
        </mxCell>
        <mxCell id="62893188c0fa7362-8" value="&lt;span&gt;&lt;font data-font-src=&quot;https://fonts.googleapis.com/css?family=%E5%8D%8E%E6%96%87%E5%AE%8B%E4%BD%93&quot; face=&quot;华文宋体&quot;&gt;流水是否造假&lt;/font&gt;&lt;/span&gt;" style="whiteSpace=wrap;html=1;rounded=1;shadow=1;labelBackgroundColor=none;strokeWidth=1;fontFamily=Verdana;fontSize=12;align=center;" parent="1" vertex="1">
          <mxGeometry x="320" y="280" width="120" height="60" as="geometry" />
        </mxCell>
        <mxCell id="62893188c0fa7362-9" value="&lt;span&gt;&lt;font data-font-src=&quot;https://fonts.googleapis.com/css?family=%E5%8D%8E%E6%96%87%E5%AE%8B%E4%BD%93&quot; face=&quot;华文宋体&quot;&gt;不贷款&lt;/font&gt;&lt;/span&gt;" style="whiteSpace=wrap;html=1;rounded=1;shadow=1;labelBackgroundColor=none;strokeWidth=1;fontFamily=Verdana;fontSize=12;align=center;" parent="1" vertex="1">
          <mxGeometry x="570" y="273" width="120" height="60" as="geometry" />
        </mxCell>
        <mxCell id="62893188c0fa7362-12" value="&lt;span&gt;&lt;font data-font-src=&quot;https://fonts.googleapis.com/css?family=%E5%8D%8E%E6%96%87%E5%AE%8B%E4%BD%93&quot; face=&quot;华文宋体&quot;&gt;贷款&lt;/font&gt;&lt;/span&gt;" style="whiteSpace=wrap;html=1;rounded=1;shadow=1;labelBackgroundColor=none;strokeWidth=1;fontFamily=Verdana;fontSize=12;align=center;" parent="1" vertex="1">
          <mxGeometry x="213" y="389" width="120" height="60" as="geometry" />
        </mxCell>
        <mxCell id="62893188c0fa7362-13" value="&lt;span&gt;&lt;font data-font-src=&quot;https://fonts.googleapis.com/css?family=%E5%8D%8E%E6%96%87%E5%AE%8B%E4%BD%93&quot; face=&quot;华文宋体&quot;&gt;不贷款&lt;/font&gt;&lt;/span&gt;" style="whiteSpace=wrap;html=1;rounded=1;shadow=1;labelBackgroundColor=none;strokeWidth=1;fontFamily=Verdana;fontSize=12;align=center;" parent="1" vertex="1">
          <mxGeometry x="455" y="392" width="120" height="60" as="geometry" />
        </mxCell>
        <mxCell id="62893188c0fa7362-14" value="Yes" style="rounded=0;html=1;labelBackgroundColor=none;startArrow=none;startFill=0;startSize=5;endArrow=none;endFill=0;endSize=5;jettySize=auto;orthogonalLoop=1;strokeWidth=1;fontFamily=Verdana;fontSize=12" parent="1" source="62893188c0fa7362-2" target="62893188c0fa7362-8" edge="1">
          <mxGeometry x="-1" y="589" relative="1" as="geometry">
            <mxPoint x="47" y="-52" as="offset" />
          </mxGeometry>
        </mxCell>
        <mxCell id="62893188c0fa7362-15" value="No" style="rounded=0;html=1;labelBackgroundColor=none;startArrow=none;startFill=0;startSize=5;endArrow=none;endFill=0;endSize=5;jettySize=auto;orthogonalLoop=1;strokeWidth=1;fontFamily=Verdana;fontSize=12" parent="1" source="62893188c0fa7362-2" target="62893188c0fa7362-9" edge="1">
          <mxGeometry x="1" y="537" relative="1" as="geometry">
            <mxPoint x="65" y="681" as="offset" />
          </mxGeometry>
        </mxCell>
        <mxCell id="62893188c0fa7362-18" value="Yes" style="rounded=0;html=1;labelBackgroundColor=none;startArrow=none;startFill=0;startSize=5;endArrow=none;endFill=0;endSize=5;jettySize=auto;orthogonalLoop=1;strokeWidth=1;fontFamily=Verdana;fontSize=12" parent="1" source="62893188c0fa7362-8" target="62893188c0fa7362-12" edge="1">
          <mxGeometry x="-1" y="686" relative="1" as="geometry">
            <mxPoint x="221" y="-267" as="offset" />
          </mxGeometry>
        </mxCell>
        <mxCell id="62893188c0fa7362-19" value="No" style="rounded=0;html=1;labelBackgroundColor=none;startArrow=none;startFill=0;startSize=5;endArrow=none;endFill=0;endSize=5;jettySize=auto;orthogonalLoop=1;strokeWidth=1;fontFamily=华文宋体;fontSize=12;fontSource=https%3A%2F%2Ffonts.googleapis.com%2Fcss%3Ffamily%3D%25E5%258D%258E%25E6%2596%2587%25E5%25AE%258B%25E4%25BD%2593;" parent="1" source="62893188c0fa7362-8" target="62893188c0fa7362-13" edge="1">
          <mxGeometry x="1" y="543" relative="1" as="geometry">
            <mxPoint x="190" y="675" as="offset" />
          </mxGeometry>
        </mxCell>
        <mxCell id="0lyGXVeIRgcLPdKY2Jkb-1" value="&lt;font data-font-src=&quot;https://fonts.googleapis.com/css?family=%E5%8D%8E%E6%96%87%E5%AE%8B%E4%BD%93&quot; face=&quot;华文宋体&quot;&gt;否&lt;/font&gt;" style="text;html=1;align=center;verticalAlign=middle;resizable=0;points=[];autosize=1;strokeColor=none;fillColor=none;" vertex="1" parent="1">
          <mxGeometry x="460" y="350" width="30" height="20" as="geometry" />
        </mxCell>
        <mxCell id="0lyGXVeIRgcLPdKY2Jkb-3" value="是" style="text;html=1;align=center;verticalAlign=middle;resizable=0;points=[];autosize=1;strokeColor=none;fillColor=none;fontFamily=华文宋体;" vertex="1" parent="1">
          <mxGeometry x="270" y="350" width="30" height="20" as="geometry" />
        </mxCell>
        <mxCell id="0lyGXVeIRgcLPdKY2Jkb-4" value="是" style="text;html=1;align=center;verticalAlign=middle;resizable=0;points=[];autosize=1;strokeColor=none;fillColor=none;fontFamily=华文宋体;" vertex="1" parent="1">
          <mxGeometry x="397" y="246" width="30" height="20" as="geometry" />
        </mxCell>
        <mxCell id="0lyGXVeIRgcLPdKY2Jkb-18" value="&lt;font data-font-src=&quot;https://fonts.googleapis.com/css?family=%E5%8D%8E%E6%96%87%E5%AE%8B%E4%BD%93&quot; face=&quot;华文宋体&quot;&gt;否&lt;/font&gt;" style="text;html=1;align=center;verticalAlign=middle;resizable=0;points=[];autosize=1;strokeColor=none;fillColor=none;" vertex="1" parent="1">
          <mxGeometry x="559" y="240" width="30" height="20" as="geometry" />
        </mxCell>
        <mxCell id="0lyGXVeIRgcLPdKY2Jkb-19" value="是" style="text;html=1;align=center;verticalAlign=middle;resizable=0;points=[];autosize=1;strokeColor=none;fillColor=none;fontFamily=华文宋体;" vertex="1" parent="1">
          <mxGeometry x="526" y="121" width="30" height="20" as="geometry" />
        </mxCell>
        <mxCell id="0lyGXVeIRgcLPdKY2Jkb-20" value="&lt;font data-font-src=&quot;https://fonts.googleapis.com/css?family=%E5%8D%8E%E6%96%87%E5%AE%8B%E4%BD%93&quot; face=&quot;华文宋体&quot;&gt;否&lt;/font&gt;" style="text;html=1;align=center;verticalAlign=middle;resizable=0;points=[];autosize=1;strokeColor=none;fillColor=none;" vertex="1" parent="1">
          <mxGeometry x="719" y="121" width="30" height="20" as="geometry" />
        </mxCell>
      </root>
    </mxGraphModel>
  </diagram>
</mxfile>
